<svg width="233" height="40" viewBox="0 0 233 40" fill="none" xmlns="http://www.w3.org/2000/svg">
<g clip-path="url(#clip0_403_3713)">
<path fill-rule="evenodd" clip-rule="evenodd" d="M8 10C8 8.61929 9.11929 7.5 10.5 7.5H14.25C15.6307 7.5 16.75 8.61929 16.75 10V30C16.75 31.3807 15.6307 32.5 14.25 32.5H10.5C9.11929 32.5 8 31.3807 8 30V10ZM14.25 10H10.5V30H14.25V10Z" fill="#00B37E"/>
<path fill-rule="evenodd" clip-rule="evenodd" d="M24.25 10C24.25 8.61929 25.3693 7.5 26.75 7.5H30.5C31.8807 7.5 33 8.61929 33 10V30C33 31.3807 31.8807 32.5 30.5 32.5H26.75C25.3693 32.5 24.25 31.3807 24.25 30V10ZM30.5 10H26.75V30H30.5V10Z" fill="#00B37E"/>
<path fill-rule="evenodd" clip-rule="evenodd" d="M30.5 12.5C30.5 11.8096 31.0596 11.25 31.75 11.25H35.5C36.163 11.25 36.7989 11.5134 37.2678 11.9822C37.7366 12.4511 38 13.087 38 13.75V26.25C38 26.913 37.7366 27.5489 37.2678 28.0178C36.7989 28.4866 36.163 28.75 35.5 28.75H31.75C31.0596 28.75 30.5 28.1904 30.5 27.5C30.5 26.8096 31.0596 26.25 31.75 26.25H35.5L35.5 13.75L31.75 13.75C31.0596 13.75 30.5 13.1904 30.5 12.5Z" fill="#00B37E"/>
<path fill-rule="evenodd" clip-rule="evenodd" d="M3.73223 11.9822C4.20107 11.5134 4.83696 11.25 5.5 11.25H9.25C9.94036 11.25 10.5 11.8096 10.5 12.5C10.5 13.1904 9.94036 13.75 9.25 13.75L5.5 13.75V26.25H9.25C9.94036 26.25 10.5 26.8096 10.5 27.5C10.5 28.1904 9.94036 28.75 9.25 28.75H5.5C4.83696 28.75 4.20108 28.4866 3.73223 28.0178C3.26339 27.5489 3 26.913 3 26.25V13.75C3 13.087 3.26339 12.4511 3.73223 11.9822Z" fill="#00B37E"/>
<path fill-rule="evenodd" clip-rule="evenodd" d="M14.25 20C14.25 19.3096 14.8096 18.75 15.5 18.75H25.5C26.1904 18.75 26.75 19.3096 26.75 20C26.75 20.6904 26.1904 21.25 25.5 21.25H15.5C14.8096 21.25 14.25 20.6904 14.25 20Z" fill="#00B37E"/>
<path fill-rule="evenodd" clip-rule="evenodd" d="M35.5 20C35.5 19.3096 36.0596 18.75 36.75 18.75H39.25C39.9404 18.75 40.5 19.3096 40.5 20C40.5 20.6904 39.9404 21.25 39.25 21.25H36.75C36.0596 21.25 35.5 20.6904 35.5 20Z" fill="#00B37E"/>
<path fill-rule="evenodd" clip-rule="evenodd" d="M0.5 20C0.5 19.3096 1.05964 18.75 1.75 18.75H4.25C4.94036 18.75 5.5 19.3096 5.5 20C5.5 20.6904 4.94036 21.25 4.25 21.25H1.75C1.05964 21.25 0.5 20.6904 0.5 20Z" fill="#00B37E"/>
</g>
<path d="M62.4375 22.4043H57.3652V19.2051H62.4375C63.2214 19.2051 63.8594 19.0775 64.3516 18.8223C64.8438 18.5579 65.2038 18.1934 65.4316 17.7285C65.6595 17.2637 65.7734 16.7396 65.7734 16.1562C65.7734 15.5638 65.6595 15.0124 65.4316 14.502C65.2038 13.9915 64.8438 13.5814 64.3516 13.2715C63.8594 12.9616 63.2214 12.8066 62.4375 12.8066H58.7871V29.5H54.6855V9.59375H62.4375C63.9961 9.59375 65.3314 9.8763 66.4434 10.4414C67.5645 10.9974 68.4212 11.7676 69.0137 12.752C69.6061 13.7363 69.9023 14.862 69.9023 16.1289C69.9023 17.4141 69.6061 18.526 69.0137 19.4648C68.4212 20.4036 67.5645 21.1283 66.4434 21.6387C65.3314 22.1491 63.9961 22.4043 62.4375 22.4043ZM76.4238 17.9336V29.5H72.4863V14.707H76.1914L76.4238 17.9336ZM80.8809 14.6113L80.8125 18.2617C80.6211 18.2344 80.3887 18.2116 80.1152 18.1934C79.8509 18.166 79.6094 18.1523 79.3906 18.1523C78.8346 18.1523 78.3516 18.2253 77.9414 18.3711C77.5404 18.5078 77.2031 18.7129 76.9297 18.9863C76.6654 19.2598 76.4648 19.5924 76.3281 19.9844C76.2005 20.3763 76.1276 20.8229 76.1094 21.3242L75.3164 21.0781C75.3164 20.1211 75.4121 19.2415 75.6035 18.4395C75.7949 17.6283 76.0729 16.9219 76.4375 16.3203C76.8112 15.7188 77.2669 15.2539 77.8047 14.9258C78.3424 14.5977 78.9577 14.4336 79.6504 14.4336C79.8691 14.4336 80.0924 14.4518 80.3203 14.4883C80.5482 14.5156 80.735 14.5566 80.8809 14.6113ZM89.2754 29.7734C88.127 29.7734 87.097 29.5911 86.1855 29.2266C85.2741 28.8529 84.4993 28.3379 83.8613 27.6816C83.2324 27.0254 82.7493 26.2643 82.4121 25.3984C82.0749 24.5234 81.9062 23.5938 81.9062 22.6094V22.0625C81.9062 20.9414 82.0658 19.916 82.3848 18.9863C82.7038 18.0566 83.1595 17.25 83.752 16.5664C84.3535 15.8828 85.0827 15.3587 85.9395 14.9941C86.7962 14.6204 87.7624 14.4336 88.8379 14.4336C89.8861 14.4336 90.8158 14.6068 91.627 14.9531C92.4382 15.2995 93.1172 15.7917 93.6641 16.4297C94.2201 17.0677 94.6393 17.8333 94.9219 18.7266C95.2044 19.6107 95.3457 20.5951 95.3457 21.6797V23.3203H83.5879V20.6953H91.4766V20.3945C91.4766 19.8477 91.3763 19.36 91.1758 18.9316C90.9844 18.4941 90.6927 18.1478 90.3008 17.8926C89.9089 17.6374 89.4076 17.5098 88.7969 17.5098C88.2773 17.5098 87.8307 17.6237 87.457 17.8516C87.0833 18.0794 86.778 18.3984 86.541 18.8086C86.3132 19.2188 86.14 19.7018 86.0215 20.2578C85.9121 20.8047 85.8574 21.4062 85.8574 22.0625V22.6094C85.8574 23.2018 85.9395 23.7487 86.1035 24.25C86.2767 24.7513 86.5182 25.1842 86.8281 25.5488C87.1471 25.9134 87.5299 26.196 87.9766 26.3965C88.4323 26.597 88.9473 26.6973 89.5215 26.6973C90.2324 26.6973 90.8932 26.5605 91.5039 26.2871C92.1237 26.0046 92.6569 25.5807 93.1035 25.0156L95.0176 27.0938C94.7077 27.5404 94.2839 27.9688 93.7461 28.3789C93.2174 28.7891 92.5794 29.1263 91.832 29.3906C91.0846 29.6458 90.2324 29.7734 89.2754 29.7734ZM101.525 17.7695V29.5H97.5742V14.707H101.279L101.525 17.7695ZM100.979 21.584H99.8848C99.8848 20.554 100.008 19.6061 100.254 18.7402C100.509 17.8652 100.878 17.1087 101.361 16.4707C101.854 15.8236 102.46 15.3223 103.18 14.9668C103.9 14.6113 104.734 14.4336 105.682 14.4336C106.338 14.4336 106.939 14.5339 107.486 14.7344C108.033 14.9258 108.503 15.2311 108.895 15.6504C109.296 16.0605 109.605 16.5983 109.824 17.2637C110.043 17.9199 110.152 18.7083 110.152 19.6289V29.5H106.215V20.0664C106.215 19.3919 106.124 18.8724 105.941 18.5078C105.759 18.1432 105.499 17.888 105.162 17.7422C104.834 17.5964 104.438 17.5234 103.973 17.5234C103.462 17.5234 103.016 17.6283 102.633 17.8379C102.259 18.0475 101.949 18.3392 101.703 18.7129C101.457 19.0775 101.275 19.5059 101.156 19.998C101.038 20.4902 100.979 21.0189 100.979 21.584ZM109.783 21.1328L108.375 21.3105C108.375 20.3444 108.493 19.4466 108.73 18.6172C108.977 17.7878 109.337 17.0586 109.811 16.4297C110.294 15.8008 110.891 15.3132 111.602 14.9668C112.312 14.6113 113.133 14.4336 114.062 14.4336C114.773 14.4336 115.421 14.5384 116.004 14.748C116.587 14.9486 117.084 15.2721 117.494 15.7188C117.913 16.1562 118.232 16.7305 118.451 17.4414C118.679 18.1523 118.793 19.0228 118.793 20.0527V29.5H114.842V20.0527C114.842 19.3691 114.751 18.8496 114.568 18.4941C114.395 18.1296 114.14 17.8789 113.803 17.7422C113.475 17.5964 113.083 17.5234 112.627 17.5234C112.153 17.5234 111.738 17.6191 111.383 17.8105C111.027 17.9928 110.731 18.248 110.494 18.5762C110.257 18.9043 110.079 19.2871 109.961 19.7246C109.842 20.153 109.783 20.6224 109.783 21.1328ZM125.998 14.707V29.5H122.047V14.707H125.998ZM121.801 10.8516C121.801 10.2773 122.001 9.80339 122.402 9.42969C122.803 9.05599 123.341 8.86914 124.016 8.86914C124.681 8.86914 125.214 9.05599 125.615 9.42969C126.025 9.80339 126.23 10.2773 126.23 10.8516C126.23 11.4258 126.025 11.8997 125.615 12.2734C125.214 12.6471 124.681 12.834 124.016 12.834C123.341 12.834 122.803 12.6471 122.402 12.2734C122.001 11.8997 121.801 11.4258 121.801 10.8516ZM138.002 25.959V14.707H141.939V29.5H138.234L138.002 25.959ZM138.439 22.9238L139.602 22.8965C139.602 23.8809 139.488 24.7969 139.26 25.6445C139.032 26.4831 138.69 27.2122 138.234 27.832C137.779 28.4427 137.204 28.9212 136.512 29.2676C135.819 29.6048 135.003 29.7734 134.064 29.7734C133.344 29.7734 132.679 29.6732 132.068 29.4727C131.467 29.263 130.947 28.9395 130.51 28.502C130.081 28.0553 129.744 27.4857 129.498 26.793C129.261 26.0911 129.143 25.248 129.143 24.2637V14.707H133.08V24.291C133.08 24.7285 133.13 25.0977 133.23 25.3984C133.34 25.6992 133.49 25.9453 133.682 26.1367C133.873 26.3281 134.096 26.4648 134.352 26.5469C134.616 26.6289 134.908 26.6699 135.227 26.6699C136.038 26.6699 136.676 26.5059 137.141 26.1777C137.615 25.8496 137.947 25.403 138.139 24.8379C138.339 24.2637 138.439 23.6257 138.439 22.9238ZM148.885 17.7695V29.5H144.934V14.707H148.639L148.885 17.7695ZM148.338 21.584H147.244C147.244 20.554 147.367 19.6061 147.613 18.7402C147.868 17.8652 148.238 17.1087 148.721 16.4707C149.213 15.8236 149.819 15.3223 150.539 14.9668C151.259 14.6113 152.093 14.4336 153.041 14.4336C153.697 14.4336 154.299 14.5339 154.846 14.7344C155.393 14.9258 155.862 15.2311 156.254 15.6504C156.655 16.0605 156.965 16.5983 157.184 17.2637C157.402 17.9199 157.512 18.7083 157.512 19.6289V29.5H153.574V20.0664C153.574 19.3919 153.483 18.8724 153.301 18.5078C153.118 18.1432 152.859 17.888 152.521 17.7422C152.193 17.5964 151.797 17.5234 151.332 17.5234C150.822 17.5234 150.375 17.6283 149.992 17.8379C149.618 18.0475 149.309 18.3392 149.062 18.7129C148.816 19.0775 148.634 19.5059 148.516 19.998C148.397 20.4902 148.338 21.0189 148.338 21.584ZM157.143 21.1328L155.734 21.3105C155.734 20.3444 155.853 19.4466 156.09 18.6172C156.336 17.7878 156.696 17.0586 157.17 16.4297C157.653 15.8008 158.25 15.3132 158.961 14.9668C159.672 14.6113 160.492 14.4336 161.422 14.4336C162.133 14.4336 162.78 14.5384 163.363 14.748C163.947 14.9486 164.443 15.2721 164.854 15.7188C165.273 16.1562 165.592 16.7305 165.811 17.4414C166.038 18.1523 166.152 19.0228 166.152 20.0527V29.5H162.201V20.0527C162.201 19.3691 162.11 18.8496 161.928 18.4941C161.755 18.1296 161.499 17.8789 161.162 17.7422C160.834 17.5964 160.442 17.5234 159.986 17.5234C159.512 17.5234 159.098 17.6191 158.742 17.8105C158.387 17.9928 158.09 18.248 157.854 18.5762C157.617 18.9043 157.439 19.2871 157.32 19.7246C157.202 20.153 157.143 20.6224 157.143 21.1328ZM192.197 19.0957V26.9844C191.887 27.3581 191.409 27.7637 190.762 28.2012C190.115 28.6296 189.281 28.9987 188.26 29.3086C187.239 29.6185 186.004 29.7734 184.555 29.7734C183.27 29.7734 182.098 29.5638 181.041 29.1445C179.984 28.7161 179.072 28.0918 178.307 27.2715C177.55 26.4512 176.967 25.4486 176.557 24.2637C176.146 23.0697 175.941 21.707 175.941 20.1758V18.9316C175.941 17.4004 176.137 16.0378 176.529 14.8438C176.93 13.6497 177.5 12.6426 178.238 11.8223C178.977 11.002 179.856 10.3776 180.877 9.94922C181.898 9.52083 183.033 9.30664 184.281 9.30664C186.013 9.30664 187.435 9.58919 188.547 10.1543C189.659 10.7103 190.507 11.485 191.09 12.4785C191.682 13.4629 192.047 14.5931 192.184 15.8691H188.205C188.105 15.1947 187.913 14.6068 187.631 14.1055C187.348 13.6042 186.943 13.2122 186.414 12.9297C185.895 12.6471 185.22 12.5059 184.391 12.5059C183.707 12.5059 183.096 12.6471 182.559 12.9297C182.03 13.2031 181.583 13.6087 181.219 14.1465C180.854 14.6842 180.576 15.3496 180.385 16.1426C180.193 16.9355 180.098 17.8561 180.098 18.9043V20.1758C180.098 21.2148 180.198 22.1354 180.398 22.9375C180.599 23.7305 180.895 24.4004 181.287 24.9473C181.688 25.485 182.18 25.8906 182.764 26.1641C183.347 26.4375 184.026 26.5742 184.801 26.5742C185.448 26.5742 185.986 26.5195 186.414 26.4102C186.852 26.3008 187.202 26.1686 187.467 26.0137C187.74 25.8496 187.95 25.6947 188.096 25.5488V22.0215H184.35V19.0957H192.197ZM199.648 27.832L203.572 14.707H207.797L201.85 31.7285C201.722 32.1022 201.549 32.5033 201.33 32.9316C201.12 33.36 200.833 33.7656 200.469 34.1484C200.113 34.5404 199.662 34.8594 199.115 35.1055C198.577 35.3516 197.917 35.4746 197.133 35.4746C196.759 35.4746 196.454 35.4518 196.217 35.4062C195.98 35.3607 195.697 35.2969 195.369 35.2148V32.3301C195.469 32.3301 195.574 32.3301 195.684 32.3301C195.793 32.3392 195.898 32.3438 195.998 32.3438C196.518 32.3438 196.941 32.2845 197.27 32.166C197.598 32.0475 197.862 31.8652 198.062 31.6191C198.263 31.3822 198.423 31.0723 198.541 30.6895L199.648 27.832ZM198.008 14.707L201.221 25.4258L201.781 29.5957L199.102 29.8828L193.783 14.707H198.008ZM213.307 17.7695V29.5H209.355V14.707H213.061L213.307 17.7695ZM212.76 21.584H211.666C211.666 20.554 211.789 19.6061 212.035 18.7402C212.29 17.8652 212.66 17.1087 213.143 16.4707C213.635 15.8236 214.241 15.3223 214.961 14.9668C215.681 14.6113 216.515 14.4336 217.463 14.4336C218.119 14.4336 218.721 14.5339 219.268 14.7344C219.814 14.9258 220.284 15.2311 220.676 15.6504C221.077 16.0605 221.387 16.5983 221.605 17.2637C221.824 17.9199 221.934 18.7083 221.934 19.6289V29.5H217.996V20.0664C217.996 19.3919 217.905 18.8724 217.723 18.5078C217.54 18.1432 217.281 17.888 216.943 17.7422C216.615 17.5964 216.219 17.5234 215.754 17.5234C215.243 17.5234 214.797 17.6283 214.414 17.8379C214.04 18.0475 213.73 18.3392 213.484 18.7129C213.238 19.0775 213.056 19.5059 212.938 19.998C212.819 20.4902 212.76 21.0189 212.76 21.584ZM221.564 21.1328L220.156 21.3105C220.156 20.3444 220.275 19.4466 220.512 18.6172C220.758 17.7878 221.118 17.0586 221.592 16.4297C222.075 15.8008 222.672 15.3132 223.383 14.9668C224.094 14.6113 224.914 14.4336 225.844 14.4336C226.555 14.4336 227.202 14.5384 227.785 14.748C228.368 14.9486 228.865 15.2721 229.275 15.7188C229.695 16.1562 230.014 16.7305 230.232 17.4414C230.46 18.1523 230.574 19.0228 230.574 20.0527V29.5H226.623V20.0527C226.623 19.3691 226.532 18.8496 226.35 18.4941C226.176 18.1296 225.921 17.8789 225.584 17.7422C225.256 17.5964 224.864 17.5234 224.408 17.5234C223.934 17.5234 223.52 17.6191 223.164 17.8105C222.809 17.9928 222.512 18.248 222.275 18.5762C222.038 18.9043 221.861 19.2871 221.742 19.7246C221.624 20.153 221.564 20.6224 221.564 21.1328Z" fill="white"/>
<defs>
<clipPath id="clip0_403_3713">
<rect width="40" height="40" fill="white" transform="translate(0.5)"/>
</clipPath>
</defs>
</svg>
